<svg width="11" height="12" viewBox="0 0 11 12" fill="none" xmlns="http://www.w3.org/2000/svg">
<path fill-rule="evenodd" clip-rule="evenodd" d="M5.07811 2.7172L5.71749 2.01965C6.23265 1.45769 7.13619 1.06769 8.03409 0.927773C8.47655 0.858822 8.89496 0.854532 9.23648 0.910326C9.58999 0.968081 9.80667 1.08098 9.90793 1.19137C10.0091 1.30176 10.1126 1.53811 10.1655 1.92378C10.2167 2.29633 10.2128 2.75281 10.1495 3.23551C10.0213 4.215 9.66376 5.20069 9.14856 5.7627L5.59476 9.63961L4.67846 8.64005C4.52239 8.46977 4.26936 8.46977 4.1133 8.64005C3.95723 8.81025 3.95723 9.08629 4.1133 9.25658L5.31218 10.5644C5.46825 10.7346 5.72128 10.7346 5.87734 10.5644L6.31468 10.0873L7.25021 11.7883C7.31353 11.9034 7.42192 11.9803 7.54406 11.9967C7.66619 12.0131 7.78848 11.9672 7.87543 11.8723L9.47394 10.1285C9.5629 10.0314 9.60478 9.89438 9.58703 9.75854L9.21562 6.92264L9.71379 6.37923C10.3975 5.63333 10.7993 4.43922 10.9407 3.35882C11.0124 2.81158 11.021 2.26809 10.956 1.79464C10.8928 1.33428 10.7515 0.878571 10.473 0.574823C10.1946 0.271084 9.77686 0.116966 9.35485 0.0480261C8.92086 -0.0228769 8.42268 -0.0135483 7.92099 0.0646238C6.93066 0.218957 5.83605 0.657262 5.15233 1.40311L4.65422 1.94654L2.05465 1.54142C1.93013 1.52201 1.8045 1.56769 1.71556 1.66472L0.117051 3.40854C0.0300351 3.50347 -0.0120383 3.63684 0.00299725 3.77007C0.0180336 3.90331 0.0885013 4.02157 0.194024 4.09064L1.75327 5.11123L1.31594 5.58832C1.241 5.67007 1.19889 5.78096 1.19889 5.89659C1.19889 6.0122 1.241 6.12309 1.31594 6.20485L2.51482 7.51272C2.67089 7.68298 2.92391 7.68298 3.07998 7.51272C3.23605 7.34247 3.23605 7.06644 3.07998 6.89619L2.16367 5.89659L2.68035 5.33294L5.07811 2.7172ZM7.67226 10.8609L6.89722 9.4518L8.50916 7.6933L8.76756 9.66603L7.67226 10.8609ZM2.33582 4.47572L3.94779 2.71721L2.13942 2.43539L1.04413 3.63025L2.33582 4.47572ZM1.48146 8.38458C1.63752 8.21438 1.63752 7.93834 1.48146 7.76809C1.3254 7.59784 1.07237 7.59784 0.916303 7.76809L0.117051 8.63996C-0.0390131 8.81025 -0.0390131 9.0863 0.117051 9.25649C0.273115 9.42678 0.526148 9.42678 0.68221 9.25649L1.48146 8.38458ZM2.68036 9.69253C2.83642 9.52225 2.83643 9.2462 2.68037 9.07601C2.5243 8.90572 2.27128 8.90572 2.11521 9.07601L0.516677 10.8197C0.360615 10.99 0.360612 11.2661 0.516677 11.4363C0.672739 11.6066 0.925766 11.6066 1.08183 11.4364L2.68036 9.69253ZM3.87922 11.0003C4.03528 10.8301 4.03528 10.5541 3.87922 10.3838C3.72316 10.2136 3.47012 10.2136 3.31406 10.3838L2.51481 11.2557C2.35875 11.426 2.35875 11.702 2.51481 11.8722C2.67087 12.0425 2.92391 12.0425 3.07997 11.8722L3.87922 11.0003ZM6.41399 4.1092C6.41399 3.66376 6.745 3.30268 7.1533 3.30268C7.56161 3.30268 7.89262 3.66376 7.89262 4.1092C7.89262 4.55462 7.56161 4.91571 7.1533 4.91571C6.745 4.91571 6.41399 4.55462 6.41399 4.1092ZM7.1533 2.56155C6.36979 2.56155 5.73463 3.25445 5.73463 4.1092C5.73463 4.96393 6.36979 5.65684 7.1533 5.65684C7.93682 5.65684 8.57198 4.96393 8.57198 4.1092C8.57198 3.25445 7.93682 2.56155 7.1533 2.56155Z" fill="white"/>
</svg>
