<svg width="13" height="16" viewBox="0 0 13 16" fill="none" xmlns="http://www.w3.org/2000/svg">
<path d="M9.54255 4.54256V3.71277C9.54255 3.6367 9.48032 3.57447 9.40425 3.57447H2.76596C2.68989 3.57447 2.62766 3.6367 2.62766 3.71277V4.54256C2.62766 4.61862 2.68989 4.68085 2.76596 4.68085H9.40425C9.48032 4.68085 9.54255 4.61862 9.54255 4.54256ZM2.76596 6.06383C2.68989 6.06383 2.62766 6.12607 2.62766 6.20213V7.03192C2.62766 7.10798 2.68989 7.17022 2.76596 7.17022H5.94681C6.02287 7.17022 6.08511 7.10798 6.08511 7.03192V6.20213C6.08511 6.12607 6.02287 6.06383 5.94681 6.06383H2.76596ZM9.26596 8.06915C7.20359 8.06915 5.53191 9.74083 5.53191 11.8032C5.53191 13.8656 7.20359 15.5372 9.26596 15.5372C11.3283 15.5372 13 13.8656 13 11.8032C13 9.74083 11.3283 8.06915 9.26596 8.06915ZM11.1243 13.6616C10.6282 14.1577 9.96782 14.4309 9.26596 14.4309C8.5641 14.4309 7.90372 14.1577 7.40758 13.6616C6.91144 13.1654 6.6383 12.5051 6.6383 11.8032C6.6383 11.1013 6.91144 10.441 7.40758 9.94482C7.90372 9.44867 8.5641 9.17553 9.26596 9.17553C9.96782 9.17553 10.6282 9.44867 11.1243 9.94482C11.6205 10.441 11.8936 11.1013 11.8936 11.8032C11.8936 12.5051 11.6205 13.1654 11.1243 13.6616ZM10.8045 10.4894H10.0387C9.99375 10.4894 9.95226 10.5101 9.92633 10.5464L8.82859 12.0642L8.42925 11.5128C8.41646 11.495 8.39958 11.4805 8.38003 11.4705C8.36047 11.4606 8.33882 11.4555 8.31689 11.4557H7.55452C7.44215 11.4557 7.37646 11.5836 7.44215 11.6753L8.71795 13.4403C8.77327 13.5164 8.88564 13.5164 8.94096 13.4403L10.9152 10.7089C10.9826 10.6173 10.9169 10.4894 10.8045 10.4894ZM5.25532 13.8777H1.24468V1.70745H10.9255V7.65426C10.9255 7.73032 10.9878 7.79256 11.0638 7.79256H12.0319C12.108 7.79256 12.1702 7.73032 12.1702 7.65426V1.01596C12.1702 0.709976 11.923 0.462769 11.617 0.462769H0.553191C0.247207 0.462769 0 0.709976 0 1.01596V14.5692C0 14.8751 0.247207 15.1223 0.553191 15.1223H5.25532C5.33138 15.1223 5.39362 15.0601 5.39362 14.984V14.016C5.39362 13.9399 5.33138 13.8777 5.25532 13.8777Z" fill="#1C155D"/>
</svg>
