<svg width="18" height="13" viewBox="0 0 18 13" fill="none" xmlns="http://www.w3.org/2000/svg">
<path fill-rule="evenodd" clip-rule="evenodd" d="M0.692308 0.5C0.30996 0.5 0 0.79848 0 1.16667C0 1.53485 0.30996 1.83333 0.692308 1.83333H17.3077C17.69 1.83333 18 1.53485 18 1.16667C18 0.79848 17.69 0.5 17.3077 0.5H0.692308ZM0 6.5C0 6.13181 0.30996 5.83333 0.692308 5.83333H17.3077C17.69 5.83333 18 6.13181 18 6.5C18 6.86819 17.69 7.16667 17.3077 7.16667H0.692308C0.30996 7.16667 0 6.86819 0 6.5ZM0 11.8333C0 11.4652 0.30996 11.1667 0.692308 11.1667H17.3077C17.69 11.1667 18 11.4652 18 11.8333C18 12.2015 17.69 12.5 17.3077 12.5H0.692308C0.30996 12.5 0 12.2015 0 11.8333Z" fill="white"/>
</svg>
