<svg width="11" height="12" viewBox="0 0 11 12" fill="none" xmlns="http://www.w3.org/2000/svg">
<path fill-rule="evenodd" clip-rule="evenodd" d="M10.1473 0.372093C10.1473 0.166592 9.99457 0 9.8062 0C9.61784 0 9.46512 0.166592 9.46512 0.372093V0.930237H8.95349C8.76512 0.930237 8.6124 1.09682 8.6124 1.30233C8.6124 1.50783 8.76512 1.67442 8.95349 1.67442H9.46512V2.23256C9.46512 2.43806 9.61784 2.60466 9.8062 2.60466C9.99457 2.60466 10.1473 2.43806 10.1473 2.23256V1.67442H10.6589C10.8473 1.67442 11 1.50783 11 1.30233C11 1.09682 10.8473 0.930237 10.6589 0.930237H10.1473V0.372093ZM8.4023 2.8339C8.56874 3.01554 8.56874 3.31003 8.4023 3.49168L7.54958 4.42191C7.38305 4.60355 7.11308 4.60355 6.94663 4.42191C6.78009 4.24027 6.78009 3.94578 6.94663 3.76413L7.79926 2.83391C7.96579 2.65226 8.23576 2.65226 8.4023 2.8339ZM6.69684 4.69437C6.86332 4.876 6.86332 5.17051 6.69684 5.35214L0.727835 11.8637C0.561334 12.0454 0.291383 12.0454 0.124882 11.8637C-0.0416273 11.6822 -0.0416273 11.3877 0.124882 11.206L6.09388 4.69437C6.26038 4.51273 6.53034 4.51273 6.69684 4.69437ZM9.8062 4.65117C9.99457 4.65117 10.1473 4.81775 10.1473 5.02326V5.5814H10.6589C10.8473 5.5814 11 5.74799 11 5.95349C11 6.15899 10.8473 6.32559 10.6589 6.32559H10.1473V6.88373C10.1473 7.08922 9.99457 7.25582 9.8062 7.25582C9.61784 7.25582 9.46512 7.08922 9.46512 6.88373V6.32559H8.95349C8.76512 6.32559 8.6124 6.15899 8.6124 5.95349C8.6124 5.74799 8.76512 5.5814 8.95349 5.5814H9.46512V5.02326C9.46512 4.81775 9.61784 4.65117 9.8062 4.65117ZM5.88374 0.372093C5.88374 0.166592 5.73103 0 5.54265 0C5.35427 0 5.20157 0.166592 5.20157 0.372093V0.930237H4.68994C4.50156 0.930237 4.34886 1.09682 4.34886 1.30233C4.34886 1.50783 4.50156 1.67442 4.68994 1.67442H5.20157V2.23256C5.20157 2.43806 5.35427 2.60466 5.54265 2.60466C5.73103 2.60466 5.88374 2.43806 5.88374 2.23256V1.67442H6.39537C6.58374 1.67442 6.73645 1.50783 6.73645 1.30233C6.73645 1.09682 6.58374 0.930237 6.39537 0.930237H5.88374V0.372093Z" fill="white"/>
</svg>
