<svg width="18" height="17" viewBox="0 0 18 17" fill="none" xmlns="http://www.w3.org/2000/svg">
<path fill-rule="evenodd" clip-rule="evenodd" d="M17.7604 14.9825C18.0799 15.3297 18.0799 15.8925 17.7604 16.2397C17.4408 16.5868 16.9228 16.5868 16.6033 16.2397L10.0578 9.12854C9.73829 8.78141 9.73829 8.2186 10.0578 7.87147L16.6033 0.76036C16.9228 0.413213 17.4408 0.413213 17.7604 0.76036C18.0799 1.10749 18.0799 1.6703 17.7604 2.01743L11.7934 8.5L17.7604 14.9825ZM7.94217 14.9825C8.2617 15.3297 8.2617 15.8925 7.94217 16.2397C7.62265 16.5868 7.10461 16.5868 6.7851 16.2397L0.239563 9.12854C-0.079855 8.78141 -0.079855 8.2186 0.239563 7.87147L6.7851 0.76036C7.10461 0.413213 7.62265 0.413213 7.94217 0.76036C8.2617 1.10749 8.2617 1.6703 7.94217 2.01743L1.97525 8.5L7.94217 14.9825Z" fill="#E0D5E6"/>
</svg>
