<svg width="14" height="14" viewBox="0 0 14 14" fill="none" xmlns="http://www.w3.org/2000/svg">
<g clip-path="url(#clip0_14_2784)">
<path d="M9.91675 0H4.08341C3.31015 0.00092625 2.56882 0.308514 2.02204 0.855295C1.47526 1.40208 1.16767 2.1434 1.16675 2.91667V11.6667C1.16675 12.2855 1.41258 12.879 1.85017 13.3166C2.28775 13.7542 2.88124 14 3.50008 14H9.91675C10.69 13.9991 11.4313 13.6915 11.9781 13.1447C12.5249 12.5979 12.8325 11.8566 12.8334 11.0833V2.91667C12.8325 2.1434 12.5249 1.40208 11.9781 0.855295C11.4313 0.308514 10.69 0.00092625 9.91675 0V0ZM11.6667 2.91667V9.33333H4.66675V1.16667H9.91675C10.3809 1.16667 10.826 1.35104 11.1542 1.67923C11.4824 2.00742 11.6667 2.45254 11.6667 2.91667ZM3.50008 1.267V9.33333C3.09036 9.33298 2.68785 9.44105 2.33341 9.64658V2.91667C2.33347 2.55482 2.44568 2.20188 2.65462 1.90645C2.86355 1.61102 3.15893 1.38762 3.50008 1.267V1.267ZM9.91675 12.8333H3.50008C3.19066 12.8333 2.89392 12.7104 2.67512 12.4916C2.45633 12.2728 2.33341 11.9761 2.33341 11.6667C2.33341 11.3572 2.45633 11.0605 2.67512 10.8417C2.89392 10.6229 3.19066 10.5 3.50008 10.5H11.6667V11.0833C11.6667 11.5475 11.4824 11.9926 11.1542 12.3208C10.826 12.649 10.3809 12.8333 9.91675 12.8333Z" fill="#1C155D"/>
</g>
<defs>
<clipPath id="clip0_14_2784">
<rect width="14" height="14" fill="white"/>
</clipPath>
</defs>
</svg>
