<svg width="13" height="14" viewBox="0 0 13 14" fill="none" xmlns="http://www.w3.org/2000/svg">
<path fill-rule="evenodd" clip-rule="evenodd" d="M4.46874 0.469799C4.46874 0.210336 4.69609 0 4.97655 0H6.49999H8.02343C8.30388 0 8.53124 0.210336 8.53124 0.469799C8.53124 0.729261 8.30388 0.939597 8.02343 0.939597H7.0078V1.99121C8.1233 2.07096 9.15993 2.41121 10.0466 2.94631C10.0665 2.92075 10.0888 2.89633 10.1136 2.87335L11.1292 1.93375C11.3771 1.70441 11.779 1.70441 12.0269 1.93375C12.2748 2.16308 12.2748 2.5349 12.0269 2.76424L11.0368 3.68023C12.2479 4.77245 13 6.29825 13 7.98656C13 11.3077 10.0898 14 6.49999 14C2.91014 14 0 11.3077 0 7.98656C0 4.82353 2.63967 2.23089 5.99218 1.99121V0.939597H4.97655C4.69609 0.939597 4.46874 0.729261 4.46874 0.469799ZM1.01562 7.98656C1.01562 5.18436 3.47106 2.91273 6.49999 2.91273C9.5289 2.91273 11.9844 5.18436 11.9844 7.98656C11.9844 10.7887 9.5289 13.0604 6.49999 13.0604C3.47106 13.0604 1.01562 10.7887 1.01562 7.98656ZM6.49999 7.98656V3.85233C4.03196 3.85233 2.03125 5.70328 2.03125 7.98656C2.03125 10.2698 4.03196 12.1208 6.49999 12.1208C7.73399 12.1208 8.85118 11.6581 9.65982 10.9099L6.49999 7.98656Z" fill="#1C155D"/>
</svg>
